<svg width="200" height="40" viewBox="0 0 200 40" fill="none" xmlns="http://www.w3.org/2000/svg">
  <path d="M5.44444 15.778C8.45438 15.778 10.8889 13.3435 10.8889 10.3336C10.8889 7.32367 8.45438 4.88916 5.44444 4.88916C2.43451 4.88916 0 7.32367 0 10.3336C0 13.3435 2.43451 15.778 5.44444 15.778Z" fill="#8F73E5" />
  <path d="M28.001 20C22.4851 20 18.001 15.5159 18.001 9.99999C18.001 4.48412 22.4851 0 28.001 0C33.5168 0 38.001 4.48412 38.001 9.99999C38.001 15.5159 33.5168 20 28.001 20ZM28.001 4.96031C25.2232 4.96031 22.9613 7.22222 22.9613 9.99999C22.9613 12.7778 25.2232 15.0397 28.001 15.0397C30.7787 15.0397 33.0406 12.7778 33.0406 9.99999C33.0406 7.22222 30.7787 4.96031 28.001 4.96031Z" fill="#8F73E5" />
  <path d="M200 3.88867C200 5.55534 198.667 6.88867 197 6.88867C195.333 6.88867 194 5.55534 194 3.88867C194 2.22201 195.333 0.888672 197 0.888672C198.667 0.888672 200 2.22201 200 3.88867ZM199.476 3.88867C199.476 2.50772 198.381 1.41248 197 1.41248C195.619 1.41248 194.524 2.50772 194.524 3.88867C194.524 5.26962 195.619 6.36486 197 6.36486C198.381 6.36486 199.476 5.22201 199.476 3.88867ZM197.524 4.17439L198.524 5.4601H197.857L196.857 4.17439H196.381V5.4601H195.857V2.26963H197.333C198.095 2.26963 198.429 2.6982 198.429 3.22201C198.429 3.6982 198.143 4.12677 197.524 4.17439ZM197.333 2.74582H196.381V3.6982H197.333C197.667 3.6982 197.857 3.55534 197.857 3.22201C197.905 2.93629 197.667 2.74582 197.333 2.74582Z" fill="black" />
  <path d="M133.387 7.89318H141.833V10.8951H133.387V18.8887H130V0.888672H142V3.8906H133.387V7.89318Z" fill="black" />
  <path d="M151.111 18.8887H147.111V0.888672H151.111V18.8887Z" fill="black" />
  <path d="M167.778 12.4648C167.778 16.1354 164.594 18.8884 160.333 18.8884C156.072 18.8884 152.889 16.1354 152.889 12.4648C152.889 8.75248 156.072 5.99951 160.333 5.99951C164.641 5.99951 167.778 8.75248 167.778 12.4648ZM156.541 12.4648C156.541 14.5087 158.179 15.9269 160.333 15.9269C162.487 15.9269 164.126 14.5087 164.126 12.4648C164.126 10.4209 162.487 9.00275 160.333 9.00275C158.179 9.00275 156.541 10.4209 156.541 12.4648Z" fill="black" />
  <path d="M168.891 5.77783C170.192 5.77783 171.445 5.77783 172.746 5.77783C172.409 10.0741 178.095 14.3704 177.999 18.6667C176.698 18.6667 175.445 18.6667 174.144 18.6667C174.481 14.3704 168.747 10.0741 168.891 5.77783Z" fill="black" />
  <path d="M178.002 5.77783C179.303 5.77783 180.556 5.77783 181.857 5.77783C181.519 10.0741 187.205 14.3704 187.109 18.6667C185.808 18.6667 184.555 18.6667 183.254 18.6667C183.591 14.3704 177.857 10.0741 178.002 5.77783Z" fill="black" />
  <path d="M183.111 5.77783H179.255L174 18.6667H177.857L183.111 5.77783Z" fill="black" />
  <path d="M192 5.77783H188.143L182.889 18.6667H186.745L192 5.77783Z" fill="black" />
  <path d="M53.1113 1.77734H59.0051C64.633 1.77734 68.2224 5.27637 68.2224 10.3542C68.2224 15.3894 64.7659 18.8885 59.0494 18.8885H53.1113V1.77734V1.77734ZM58.8278 15.9015C62.2843 15.9015 64.5444 13.5119 64.5444 10.3969C64.5444 7.19657 62.24 4.84966 59.0494 4.84966H56.6121V15.9015H58.8278Z" fill="black" />
  <path d="M82.1344 13.8777H73.5756C73.9727 15.2671 75.1197 16.1092 76.7079 16.1092C77.9874 16.1513 78.958 15.604 79.6197 14.804L81.7374 16.6987C80.6785 17.9619 78.9138 18.8882 76.4874 18.8882C72.9138 18.8882 70.2227 16.5303 70.2227 12.8671C70.2227 9.33029 72.7815 6.88818 76.2668 6.88818C79.8403 6.88818 82.2227 9.37239 82.2227 12.7408C82.1785 13.1619 82.1785 13.7092 82.1344 13.8777ZM73.6197 11.6461H78.958C78.6491 10.425 77.7668 9.62503 76.355 9.62503C75.0315 9.62503 73.9727 10.3408 73.6197 11.6461Z" fill="black" />
  <path d="M97.1104 11.8602V18.8882H93.7467V12.6315C93.7467 10.3603 92.8831 9.67464 91.3376 9.67464C89.6558 9.67464 88.474 10.7888 88.474 12.8887V18.8453H85.1104V7.06057H88.474V8.6033H88.5194C89.5649 7.44625 90.974 6.88915 92.5194 6.88915C95.2467 6.8463 97.1104 8.21762 97.1104 11.8602Z" fill="black" />
  <path d="M99.6584 15.0258V9.63623H98.2236V7.04755H99.6584V3.22817L102.832 2.88867V7.04755H106.093V9.63623H102.832V14.6014C102.832 15.6199 103.137 16.0867 103.876 16.0867C104.267 16.0867 104.876 15.9594 105.398 15.6624L106.224 18.1662C105.441 18.5905 104.658 18.8876 103.05 18.8876C101.006 18.93 99.6584 17.6994 99.6584 15.0258Z" fill="black" />
  <path d="M120.224 7.05661V18.6777H117.287V17.2882H117.203C116.405 18.2987 115.231 18.8882 113.762 18.8882C110.573 18.8882 108.224 16.5303 108.224 12.9092C108.224 9.3724 110.573 6.88818 113.678 6.88818C115.063 6.88818 116.238 7.39345 117.077 8.40397H117.161V7.05661H120.224ZM117.245 12.9092C117.245 11.0566 116.028 9.66713 114.35 9.66713C112.671 9.66713 111.37 10.9303 111.37 12.9092C111.37 14.804 112.587 16.0671 114.35 16.0671C115.944 16.0671 117.245 14.804 117.245 12.9092Z" fill="black" />
  <path d="M124.001 0.888672H127.112V18.8887H124.001V0.888672Z" fill="black" />
  <path d="M52.8887 39.8425V30.3449H56.6995C57.4379 30.3449 58.0494 30.4562 58.5338 30.6788C59.0182 30.8983 59.3806 31.1967 59.6211 31.5738C59.8616 31.9479 59.9819 32.37 59.9819 32.8399C59.9819 33.2356 59.9023 33.5695 59.7431 33.8416C59.5839 34.1106 59.3705 34.327 59.1029 34.4908C58.8386 34.6516 58.5473 34.7691 58.2289 34.8433V34.936C58.5744 34.9515 58.9115 35.0535 59.24 35.2421C59.572 35.4276 59.8464 35.692 60.0632 36.0351C60.28 36.3783 60.3884 36.7957 60.3884 37.2873C60.3884 37.7727 60.263 38.2086 60.0124 38.595C59.7651 38.9784 59.3823 39.2829 58.864 39.5086C58.3458 39.7312 57.6835 39.8425 56.8773 39.8425H52.8887ZM54.4587 38.6136H56.7249C57.4769 38.6136 58.0155 38.4807 58.3407 38.2148C58.6659 37.9489 58.8285 37.6165 58.8285 37.2177C58.8285 36.9178 58.7455 36.6427 58.5795 36.3922C58.4135 36.1418 58.1764 35.9424 57.8681 35.794C57.5633 35.6456 57.2008 35.5714 56.7808 35.5714H54.4587V38.6136ZM54.4587 34.4537H56.5623C56.9146 34.4537 57.2313 34.3919 57.5125 34.2682C57.797 34.1446 58.0223 33.9714 58.1883 33.7488C58.3576 33.5232 58.4423 33.2573 58.4423 32.9512C58.4423 32.5585 58.2916 32.2293 57.9901 31.9634C57.6886 31.6975 57.2262 31.5646 56.603 31.5646H54.4587V34.4537Z" fill="black" />
  <path d="M68.6528 32.2231H69.8265C69.8265 32.9527 69.6453 33.5293 69.2828 33.9529C68.9238 34.3734 68.3106 34.5836 67.4435 34.5836V33.8045C67.789 33.8045 68.0481 33.7396 68.2209 33.6097C68.3936 33.4768 68.5088 33.2928 68.5664 33.0579C68.624 32.8198 68.6528 32.5415 68.6528 32.2231ZM65.4161 39.9863C64.6844 39.9863 64.0459 39.8333 63.5005 39.5272C62.9552 39.2211 62.5317 38.7929 62.2303 38.2426C61.9288 37.6923 61.778 37.0492 61.778 36.3134C61.778 35.5745 61.9288 34.9283 62.2303 34.3749C62.5317 33.8215 62.9552 33.3918 63.5005 33.0857C64.0459 32.7796 64.6844 32.6266 65.4161 32.6266C66.1478 32.6266 66.7863 32.7796 67.3317 33.0857C67.8771 33.3918 68.3005 33.8215 68.602 34.3749C68.9034 34.9283 69.0542 35.5745 69.0542 36.3134C69.0542 37.0492 68.9034 37.6923 68.602 38.2426C68.3005 38.7929 67.8771 39.2211 67.3317 39.5272C66.7863 39.8333 66.1478 39.9863 65.4161 39.9863ZM65.4212 38.8223C65.8954 38.8223 66.2884 38.7079 66.6 38.4791C66.9116 38.2503 67.142 37.9458 67.291 37.5655C67.4435 37.1852 67.5197 36.7663 67.5197 36.3088C67.5197 35.8543 67.4435 35.4369 67.291 35.0566C67.142 34.6733 66.9116 34.3656 66.6 34.1338C66.2884 33.9019 65.8954 33.7859 65.4212 33.7859C64.9436 33.7859 64.5472 33.9019 64.2322 34.1338C63.9206 34.3656 63.6885 34.6733 63.5361 35.0566C63.3871 35.4369 63.3125 35.8543 63.3125 36.3088C63.3125 36.7663 63.3871 37.1852 63.5361 37.5655C63.6885 37.9458 63.9206 38.2503 64.2322 38.4791C64.5472 38.7079 64.9436 38.8223 65.4212 38.8223ZM66.036 31.7362H64.8369L64.7962 30.7901C65.1553 30.7747 65.4093 30.7314 65.5584 30.6603C65.7074 30.5861 65.7803 30.4794 65.7769 30.3403C65.7803 30.1733 65.6769 30.0543 65.4669 29.9832C65.2603 29.9121 65.0079 29.8765 64.7098 29.8765L64.7556 29.1113C65.5245 29.1113 66.1071 29.2226 66.5035 29.4452C66.9032 29.6678 67.1013 29.9677 67.098 30.3449C67.1013 30.651 66.9913 30.8767 66.7677 31.022C66.5475 31.1642 66.3036 31.2539 66.036 31.291V31.7362Z" fill="black" />
  <path d="M70.8478 39.8425V32.7193H72.367V39.8425H70.8478ZM71.615 31.6202C71.3508 31.6202 71.1239 31.5398 70.9342 31.3791C70.7479 31.2152 70.6547 31.0204 70.6547 30.7947C70.6547 30.566 70.7479 30.3712 70.9342 30.2104C71.1239 30.0466 71.3508 29.9646 71.615 29.9646C71.8793 29.9646 72.1045 30.0466 72.2908 30.2104C72.4805 30.3712 72.5754 30.566 72.5754 30.7947C72.5754 31.0204 72.4805 31.2152 72.2908 31.3791C72.1045 31.5398 71.8793 31.6202 71.615 31.6202Z" fill="black" />
  <path d="M79.7169 35.6131V39.8425H78.1976V32.7193H79.6559V33.8787H79.7524C79.932 33.5015 80.2131 33.1985 80.5959 32.9697C80.982 32.741 81.4681 32.6266 82.0542 32.6266C82.586 32.6266 83.0517 32.7286 83.4515 32.9326C83.8512 33.1336 84.1611 33.4335 84.3813 33.8323C84.6015 34.2311 84.7116 34.7243 84.7116 35.3117V39.8425H83.1923V35.4786C83.1923 34.9623 83.045 34.5589 82.7503 34.2682C82.4556 33.9745 82.0508 33.8277 81.5359 33.8277C81.1836 33.8277 80.8703 33.8972 80.5959 34.0364C80.3249 34.1755 80.1098 34.3795 79.9506 34.6485C79.7948 34.9144 79.7169 35.2359 79.7169 35.6131Z" fill="black" />
  <path d="M88.2683 35.6131V39.8425H86.7491V30.3449H88.248V33.8787H88.3446C88.5275 33.4953 88.8069 33.1908 89.1829 32.9651C89.5589 32.7394 90.0501 32.6266 90.6565 32.6266C91.1917 32.6266 91.6591 32.727 92.0588 32.928C92.4619 33.129 92.7736 33.4289 92.9938 33.8277C93.2173 34.2234 93.3291 34.7181 93.3291 35.3117V39.8425H91.8099V35.4786C91.8099 34.9561 91.6625 34.5511 91.3678 34.2636C91.0731 33.973 90.6632 33.8277 90.1382 33.8277C89.7791 33.8277 89.4573 33.8972 89.1728 34.0364C88.8916 34.1755 88.6697 34.3795 88.5071 34.6485C88.3479 34.9144 88.2683 35.2359 88.2683 35.6131Z" fill="black" />
  <path d="M97.6277 40.0002C97.1332 40.0002 96.686 39.9167 96.2863 39.7498C95.8866 39.5797 95.5699 39.334 95.3361 39.0124C95.1058 38.6909 94.9906 38.2967 94.9906 37.8299C94.9906 37.4279 95.0753 37.0971 95.2447 36.8374C95.414 36.5777 95.6427 36.3721 95.9306 36.2206C96.2186 36.0691 96.5404 35.9548 96.896 35.8775C97.2517 35.8002 97.6142 35.7414 97.9834 35.7012C98.4509 35.6518 98.8302 35.6116 99.1215 35.5807C99.4129 35.5467 99.6246 35.4926 99.7567 35.4184C99.8888 35.3442 99.9548 35.2236 99.9548 35.0566V35.0242C99.9548 34.6192 99.8295 34.3053 99.5788 34.0827C99.3316 33.8601 98.9623 33.7488 98.4712 33.7488C97.9597 33.7488 97.5566 33.8524 97.2619 34.0596C96.9706 34.2636 96.769 34.4908 96.6572 34.7413L95.2294 34.4445C95.3988 34.0116 95.6461 33.6623 95.9713 33.3964C96.2999 33.1274 96.6775 32.9326 97.1044 32.8121C97.5312 32.6884 97.98 32.6266 98.4508 32.6266C98.7625 32.6266 99.0928 32.6606 99.4417 32.7286C99.794 32.7935 100.123 32.9141 100.427 33.0903C100.736 33.2665 100.988 33.5185 101.184 33.8462C101.381 34.1709 101.479 34.5929 101.479 35.1123V39.8425H99.9955V38.8687H99.9345C99.8363 39.048 99.6889 39.2242 99.4925 39.3973C99.296 39.5705 99.0436 39.7142 98.7354 39.8286C98.4271 39.943 98.0579 40.0002 97.6277 40.0002ZM97.958 38.8872C98.378 38.8872 98.7371 38.8115 99.0352 38.66C99.3367 38.5085 99.5653 38.3106 99.7211 38.0664C99.8803 37.819 99.9599 37.5547 99.9599 37.2734V36.3551C99.9057 36.4046 99.8007 36.451 99.6449 36.4943C99.4925 36.5344 99.318 36.57 99.1215 36.6009C98.9251 36.6287 98.7337 36.655 98.5474 36.6798C98.3611 36.7014 98.2053 36.7199 98.0799 36.7354C97.7852 36.7694 97.5159 36.8266 97.272 36.907C97.0315 36.9874 96.8385 37.1033 96.6928 37.2548C96.5505 37.4032 96.4794 37.6011 96.4794 37.8484C96.4794 38.1916 96.6183 38.4513 96.896 38.6275C97.1738 38.8006 97.5278 38.8872 97.958 38.8872Z" fill="black" />
  <path d="M113.138 34.4584L111.761 34.681C111.703 34.5202 111.612 34.3672 111.486 34.2219C111.364 34.0766 111.198 33.9575 110.988 33.8648C110.778 33.772 110.516 33.7257 110.201 33.7257C109.771 33.7257 109.412 33.8138 109.124 33.99C108.836 34.1631 108.692 34.3873 108.692 34.6624C108.692 34.9005 108.788 35.0922 108.981 35.2375C109.174 35.3828 109.486 35.5018 109.916 35.5946L111.156 35.8543C111.874 36.0058 112.409 36.2392 112.762 36.5545C113.114 36.8699 113.29 37.2795 113.29 37.7835C113.29 38.2101 113.155 38.5904 112.884 38.9243C112.616 39.2551 112.242 39.5148 111.761 39.7034C111.283 39.892 110.729 39.9863 110.099 39.9863C109.225 39.9863 108.512 39.8163 107.96 39.4762C107.408 39.133 107.069 38.6461 106.944 38.0154L108.412 37.8113C108.504 38.1607 108.692 38.425 108.976 38.6043C109.261 38.7805 109.632 38.8687 110.089 38.8687C110.587 38.8687 110.985 38.7744 111.283 38.5858C111.581 38.3941 111.73 38.1607 111.73 37.8855C111.73 37.6629 111.639 37.4759 111.456 37.3244C111.276 37.1729 111 37.0585 110.628 36.9812L109.307 36.7169C108.578 36.5654 108.04 36.3242 107.691 35.9934C107.345 35.6626 107.173 35.2437 107.173 34.7366C107.173 34.3162 107.301 33.9483 107.559 33.6329C107.816 33.3176 108.172 33.0718 108.626 32.8955C109.08 32.7162 109.6 32.6266 110.186 32.6266C111.029 32.6266 111.693 32.7935 112.177 33.1274C112.662 33.4582 112.982 33.9019 113.138 34.4584Z" fill="black" />
  <path d="M115.204 39.8425V32.7193H116.724V39.8425H115.204ZM114.442 31.8567L113.421 31.8289C113.421 31.3157 113.573 30.906 113.878 30.6C114.18 30.2939 114.554 30.1409 115.001 30.1409C115.208 30.1409 115.389 30.1733 115.545 30.2382C115.701 30.3001 115.846 30.3727 115.982 30.4562C116.121 30.5366 116.258 30.6092 116.393 30.6742C116.532 30.736 116.686 30.7669 116.856 30.7669C117.052 30.7669 117.212 30.6989 117.333 30.5629C117.459 30.4268 117.521 30.2583 117.521 30.0574L118.522 30.1177C118.522 30.634 118.37 31.0405 118.065 31.3373C117.76 31.631 117.386 31.7794 116.942 31.7825C116.702 31.7825 116.502 31.7516 116.343 31.6898C116.187 31.6249 116.048 31.5522 115.926 31.4718C115.804 31.3883 115.679 31.3141 115.55 31.2492C115.421 31.1843 115.267 31.1518 115.088 31.1518C114.898 31.1518 114.742 31.2199 114.62 31.3559C114.502 31.4888 114.442 31.6558 114.442 31.8567Z" fill="black" />
  <path d="M127.384 34.4908V35.6966H122.77V34.4908H127.384Z" fill="black" />
  <path d="M134.227 30.3449L137.123 38.0803H137.24L140.136 30.3449H141.833L138.088 39.8425H136.275L132.53 30.3449H134.227Z" fill="black" />
  <path d="M143.214 39.8425V32.7193H144.733V39.8425H143.214ZM143.392 31.7686L141.822 29.6307H143.422L144.606 31.7686H143.392Z" fill="black" />
  <path d="M152.083 35.6131V39.8425H150.564V32.7193H152.022V33.8787H152.119C152.298 33.5015 152.579 33.1985 152.962 32.9697C153.348 32.741 153.834 32.6266 154.42 32.6266C154.952 32.6266 155.418 32.7286 155.818 32.9326C156.217 33.1336 156.527 33.4335 156.748 33.8323C156.968 34.2311 157.078 34.7243 157.078 35.3117V39.8425H155.559V35.4786C155.559 34.9623 155.411 34.5589 155.116 34.2682C154.822 33.9745 154.417 33.8277 153.902 33.8277C153.55 33.8277 153.236 33.8972 152.962 34.0364C152.691 34.1755 152.476 34.3795 152.317 34.6485C152.161 34.9144 152.083 35.2359 152.083 35.6131Z" fill="black" />
  <path d="M160.635 35.6131V39.8425H159.115V30.3449H160.614V33.8787H160.711C160.894 33.4953 161.173 33.1908 161.549 32.9651C161.925 32.7394 162.416 32.6266 163.023 32.6266C163.558 32.6266 164.025 32.727 164.425 32.928C164.828 33.129 165.14 33.4289 165.36 33.8277C165.584 34.2234 165.695 34.7181 165.695 35.3117V39.8425H164.176V35.4786C164.176 34.9561 164.029 34.5511 163.734 34.2636C163.439 33.973 163.029 33.8277 162.504 33.8277C162.145 33.8277 161.824 33.8972 161.539 34.0364C161.258 34.1755 161.036 34.3795 160.873 34.6485C160.714 34.9144 160.635 35.2359 160.635 35.6131Z" fill="black" />
  <path d="M169.994 40.0002C169.499 40.0002 169.052 39.9167 168.653 39.7498C168.253 39.5797 167.936 39.334 167.702 39.0124C167.472 38.6909 167.357 38.2967 167.357 37.8299C167.357 37.4279 167.442 37.0971 167.611 36.8374C167.78 36.5777 168.009 36.3721 168.297 36.2206C168.585 36.0691 168.907 35.9548 169.262 35.8775C169.618 35.8002 169.98 35.7414 170.35 35.7012C170.817 35.6518 171.196 35.6116 171.488 35.5807C171.779 35.5467 171.991 35.4926 172.123 35.4184C172.255 35.3442 172.321 35.2236 172.321 35.0566V35.0242C172.321 34.6192 172.196 34.3053 171.945 34.0827C171.698 33.8601 171.329 33.7488 170.837 33.7488C170.326 33.7488 169.923 33.8524 169.628 34.0596C169.337 34.2636 169.135 34.4908 169.023 34.7413L167.596 34.4445C167.765 34.0116 168.012 33.6623 168.337 33.3964C168.666 33.1274 169.044 32.9326 169.471 32.8121C169.897 32.6884 170.346 32.6266 170.817 32.6266C171.129 32.6266 171.459 32.6606 171.808 32.7286C172.16 32.7935 172.489 32.9141 172.794 33.0903C173.102 33.2665 173.354 33.5185 173.551 33.8462C173.747 34.1709 173.845 34.5929 173.845 35.1123V39.8425H172.362V38.8687H172.301C172.203 39.048 172.055 39.2242 171.859 39.3973C171.662 39.5705 171.41 39.7142 171.102 39.8286C170.793 39.943 170.424 40.0002 169.994 40.0002ZM170.324 38.8872C170.744 38.8872 171.103 38.8115 171.401 38.66C171.703 38.5085 171.932 38.3106 172.087 38.0664C172.247 37.819 172.326 37.5547 172.326 37.2734V36.3551C172.272 36.4046 172.167 36.451 172.011 36.4943C171.859 36.5344 171.684 36.57 171.488 36.6009C171.291 36.6287 171.1 36.655 170.914 36.6798C170.727 36.7014 170.571 36.7199 170.446 36.7354C170.151 36.7694 169.882 36.8266 169.638 36.907C169.398 36.9874 169.205 37.1033 169.059 37.2548C168.917 37.4032 168.846 37.6011 168.846 37.8484C168.846 38.1916 168.984 38.4513 169.262 38.6275C169.54 38.8006 169.894 38.8872 170.324 38.8872Z" fill="black" />
  <path d="M185.504 34.4584L184.127 34.681C184.069 34.5202 183.978 34.3672 183.853 34.2219C183.731 34.0766 183.565 33.9575 183.355 33.8648C183.145 33.772 182.882 33.7257 182.567 33.7257C182.137 33.7257 181.778 33.8138 181.49 33.99C181.202 34.1631 181.058 34.3873 181.058 34.6624C181.058 34.9005 181.155 35.0922 181.348 35.2375C181.541 35.3828 181.852 35.5018 182.283 35.5946L183.522 35.8543C184.24 36.0058 184.776 36.2392 185.128 36.5545C185.48 36.8699 185.656 37.2795 185.656 37.7835C185.656 38.2101 185.521 38.5904 185.25 38.9243C184.982 39.2551 184.608 39.5148 184.127 39.7034C183.649 39.892 183.096 39.9863 182.465 39.9863C181.592 39.9863 180.878 39.8163 180.326 39.4762C179.774 39.133 179.435 38.6461 179.31 38.0154L180.779 37.8113C180.87 38.1607 181.058 38.425 181.343 38.6043C181.627 38.7805 181.998 38.8687 182.455 38.8687C182.953 38.8687 183.351 38.7744 183.649 38.5858C183.947 38.3941 184.097 38.1607 184.097 37.8855C184.097 37.6629 184.005 37.4759 183.822 37.3244C183.643 37.1729 183.367 37.0585 182.994 36.9812L181.673 36.7169C180.945 36.5654 180.406 36.3242 180.057 35.9934C179.712 35.6626 179.539 35.2437 179.539 34.7366C179.539 34.3162 179.667 33.9483 179.925 33.6329C180.182 33.3176 180.538 33.0718 180.992 32.8955C181.446 32.7162 181.966 32.6266 182.552 32.6266C183.395 32.6266 184.059 32.7935 184.544 33.1274C185.028 33.4582 185.348 33.9019 185.504 34.4584Z" fill="black" />
  <path d="M187.571 39.8425V32.7193H189.09V39.8425H187.571ZM186.809 31.8567L185.787 31.8289C185.787 31.3157 185.94 30.906 186.245 30.6C186.546 30.2939 186.92 30.1409 187.367 30.1409C187.574 30.1409 187.755 30.1733 187.911 30.2382C188.067 30.3001 188.213 30.3727 188.348 30.4562C188.487 30.5366 188.624 30.6092 188.76 30.6742C188.899 30.736 189.053 30.7669 189.222 30.7669C189.419 30.7669 189.578 30.6989 189.7 30.5629C189.825 30.4268 189.888 30.2583 189.888 30.0574L190.889 30.1177C190.889 30.634 190.736 31.0405 190.431 31.3373C190.127 31.631 189.752 31.7794 189.308 31.7825C189.068 31.7825 188.868 31.7516 188.709 31.6898C188.553 31.6249 188.414 31.5522 188.292 31.4718C188.17 31.3883 188.045 31.3141 187.916 31.2492C187.788 31.1843 187.633 31.1518 187.454 31.1518C187.264 31.1518 187.108 31.2199 186.986 31.3559C186.868 31.4888 186.809 31.6558 186.809 31.8567Z" fill="black" />
</svg>
